<svg width="248" height="46" viewBox="0 0 248 46" fill="none" xmlns="http://www.w3.org/2000/svg">
<rect x="1.99994" y="18.0001" width="230" height="2" fill="#459EDE"/>
<rect x="1.99994" y="22.0001" width="230" height="2" fill="#DE4545"/>
<rect x="1.99994" y="26.0001" width="230" height="2" fill="#EFCD1D"/>
<path d="M17.496 33.896C14.648 34.952 11.992 35.48 9.52797 35.48C6.74397 35.48 4.48797 34.744 2.75997 33.272C1.03197 31.8 0.167969 29.448 0.167969 26.216V10.808C0.167969 8.37604 0.503969 6.53604 1.17597 5.28804C1.87997 4.04004 2.93597 2.98404 4.34397 2.12004C5.75197 1.32004 7.47997 0.920044 9.52797 0.920044C12.024 0.920044 14.28 1.44804 16.296 2.50404L15.048 6.24804C13.512 5.67204 11.864 5.38404 10.104 5.38404C8.56797 5.38404 7.25597 5.80004 6.16797 6.63204C5.07997 7.43204 4.53597 8.68004 4.53597 10.376V26.12C4.53597 29.416 6.40797 31.064 10.152 31.064C12.072 31.064 14.28 30.664 16.776 29.864L17.496 33.896Z" fill="#141414"/>
<path d="M21.4627 1.40004H25.8307V35H21.4627V1.40004Z" fill="#141414"/>
<path d="M49.2716 35C45.8156 35.352 43.3196 35.528 41.7836 35.528C38.4236 35.528 35.7516 34.904 33.7676 33.656C31.7836 32.408 30.7916 30.152 30.7916 26.888V22.904C30.7916 19.736 31.8956 17.608 34.1036 16.52C35.1596 16.008 36.4076 15.752 37.8476 15.752C39.1276 15.752 40.4236 15.944 41.7356 16.328C43.0476 16.712 44.1036 17.16 44.9036 17.672C44.9036 16.328 44.3916 15.32 43.3676 14.648C42.3436 13.976 40.8716 13.64 38.9516 13.64L39.2876 10.568C42.3596 10.568 44.6156 11.064 46.0556 12.056C47.5276 13.016 48.4236 14.168 48.7436 15.512C49.0956 16.856 49.2716 18.584 49.2716 20.696V35ZM44.9036 22.04C44.0716 21.56 43.0636 21.128 41.8796 20.744C40.6956 20.36 39.5916 20.168 38.5676 20.168C36.2956 20.168 35.1596 21.24 35.1596 23.384V26.552C35.1596 29.848 37.2716 31.496 41.4956 31.496C42.5196 31.496 43.6556 31.4 44.9036 31.208V22.04Z" fill="#141414"/>
<path d="M53.928 10.952H58.056L58.248 11.672C59.624 10.936 61.144 10.568 62.808 10.568C63.96 10.568 65.304 10.744 66.84 11.096L65.784 15.272C64.92 14.888 63.992 14.696 63 14.696C61.688 14.696 60.568 15.032 59.64 15.704C58.744 16.344 58.296 17.24 58.296 18.392V35H53.928V10.952Z" fill="#141414"/>
<path d="M83.9122 35C80.4562 35.352 77.9602 35.528 76.4242 35.528C73.0642 35.528 70.3922 34.904 68.4082 33.656C66.4242 32.408 65.4322 30.152 65.4322 26.888V22.904C65.4322 19.736 66.5362 17.608 68.7442 16.52C69.8002 16.008 71.0482 15.752 72.4882 15.752C73.7682 15.752 75.0642 15.944 76.3762 16.328C77.6882 16.712 78.7442 17.16 79.5442 17.672C79.5442 16.328 79.0322 15.32 78.0082 14.648C76.9842 13.976 75.5122 13.64 73.5922 13.64L73.9282 10.568C77.0002 10.568 79.2562 11.064 80.6962 12.056C82.1682 13.016 83.0642 14.168 83.3842 15.512C83.7362 16.856 83.9122 18.584 83.9122 20.696V35ZM79.5442 22.04C78.7122 21.56 77.7042 21.128 76.5202 20.744C75.3362 20.36 74.2322 20.168 73.2082 20.168C70.9362 20.168 69.8002 21.24 69.8002 23.384V26.552C69.8002 29.848 71.9122 31.496 76.1362 31.496C77.1602 31.496 78.2962 31.4 79.5442 31.208V22.04Z" fill="#141414"/>
<path d="M117.48 34.04C116.072 35 114.328 35.48 112.248 35.48C110.456 35.48 108.792 35.144 107.256 34.472C105.72 33.8 104.472 32.744 103.512 31.304C102.584 29.864 102.12 28.072 102.12 25.928V10.856C102.12 8.61604 102.472 6.82405 103.176 5.48005C103.912 4.10404 104.952 3.00004 106.296 2.16805C107.704 1.36804 109.432 0.968043 111.48 0.968043C113.976 0.968043 116.232 1.49604 118.248 2.55204L116.952 6.29604C115.32 5.68804 113.768 5.38404 112.296 5.38404C110.6 5.38404 109.208 5.73604 108.12 6.44004C107.032 7.11205 106.488 8.44005 106.488 10.424V26.024C106.488 27.784 107 29.08 108.024 29.912C109.048 30.712 110.44 31.112 112.2 31.112C113.736 31.112 115 30.696 115.992 29.864C117.016 29.032 117.528 27.768 117.528 26.072V24.824H114.648L113.208 20.6H121.848V35H117.912L117.48 34.04Z" fill="#141414"/>
<path d="M145.037 35C141.581 35.352 139.085 35.528 137.549 35.528C134.189 35.528 131.517 34.904 129.533 33.656C127.549 32.408 126.557 30.152 126.557 26.888V22.904C126.557 19.736 127.661 17.608 129.869 16.52C130.925 16.008 132.173 15.752 133.613 15.752C134.893 15.752 136.189 15.944 137.501 16.328C138.813 16.712 139.869 17.16 140.669 17.672C140.669 16.328 140.157 15.32 139.133 14.648C138.109 13.976 136.637 13.64 134.717 13.64L135.053 10.568C138.125 10.568 140.381 11.064 141.821 12.056C143.293 13.016 144.189 14.168 144.509 15.512C144.861 16.856 145.037 18.584 145.037 20.696V35ZM140.669 22.04C139.837 21.56 138.829 21.128 137.645 20.744C136.461 20.36 135.357 20.168 134.333 20.168C132.061 20.168 130.925 21.24 130.925 23.384V26.552C130.925 29.848 133.037 31.496 137.261 31.496C138.285 31.496 139.421 31.4 140.669 31.208V22.04Z" fill="#141414"/>
<path d="M149.694 10.952H153.822L154.014 11.672C155.39 10.936 156.91 10.568 158.574 10.568C159.726 10.568 161.07 10.744 162.606 11.096L161.55 15.272C160.686 14.888 159.758 14.696 158.766 14.696C157.454 14.696 156.334 15.032 155.406 15.704C154.51 16.344 154.062 17.24 154.062 18.392V35H149.694V10.952Z" fill="#141414"/>
<path d="M168.226 41.624C169.026 42.168 169.682 42.504 170.194 42.632C170.706 42.76 171.298 42.824 171.97 42.824C172.738 42.824 173.41 42.664 173.986 42.344C174.562 42.024 174.85 41.528 174.85 40.856C174.85 40.408 174.69 40.04 174.37 39.752C174.082 39.496 173.682 39.368 173.17 39.368C172.562 39.368 171.922 39.528 171.25 39.848L169.282 40.76L167.89 38.744L170.674 35.144C170.45 35.112 170.114 35.032 169.666 34.904C167.778 34.264 166.402 33.288 165.538 31.976C164.706 30.632 164.29 28.76 164.29 26.36V20.216C164.29 17.048 165.122 14.648 166.786 13.016C168.45 11.352 170.594 10.52 173.218 10.52C175.298 10.52 177.442 11.032 179.65 12.056L178.45 15.704C176.882 15.064 175.394 14.744 173.986 14.744C172.322 14.744 171.01 15.208 170.05 16.136C169.122 17.032 168.658 18.296 168.658 19.928V26.888C168.658 28.424 169.186 29.528 170.242 30.2C171.298 30.872 172.642 31.208 174.274 31.208C175.714 31.208 177.154 31 178.594 30.584L179.746 34.712C177.346 35.32 175.218 35.576 173.362 35.48L172.21 37.112C172.722 36.888 173.282 36.776 173.89 36.776C174.978 36.776 175.922 37.128 176.722 37.832C177.522 38.568 177.922 39.576 177.922 40.856C177.922 42.552 177.25 43.784 175.906 44.552C174.594 45.352 173.122 45.752 171.49 45.752C170.082 45.752 168.498 45.432 166.738 44.792L168.226 41.624Z" fill="#141414"/>
<path d="M202.585 26.168C202.585 28.856 201.849 31.08 200.377 32.84C198.905 34.6 196.681 35.48 193.705 35.48C190.729 35.48 188.473 34.6 186.937 32.84C185.433 31.048 184.681 28.824 184.681 26.168V19.832C184.681 16.792 185.449 14.472 186.985 12.872C188.553 11.24 190.793 10.424 193.705 10.424C196.489 10.424 198.665 11.272 200.233 12.968C201.801 14.632 202.585 16.92 202.585 19.832V26.168ZM198.265 19.832C198.265 16.44 196.745 14.744 193.705 14.744C192.329 14.744 191.209 15.128 190.345 15.896C189.481 16.664 189.049 17.976 189.049 19.832V26.648C189.049 28.152 189.481 29.304 190.345 30.104C191.209 30.872 192.329 31.256 193.705 31.256C195.081 31.256 196.185 30.856 197.017 30.056C197.849 29.256 198.265 28.12 198.265 26.648V19.832Z" fill="#141414"/>
<path d="M220.791 19.4C220.791 17.864 220.327 16.712 219.399 15.944C218.503 15.144 217.351 14.744 215.943 14.744C214.471 14.744 213.079 15.096 211.767 15.8V35H207.447V10.952H211.431L211.767 11.72C212.407 11.368 213.175 11.096 214.071 10.904C214.967 10.68 215.895 10.568 216.855 10.568C218.487 10.568 219.895 10.856 221.079 11.432C222.359 12.008 223.351 12.872 224.055 14.024C224.791 15.176 225.159 16.632 225.159 18.392V35H220.791V19.4Z" fill="#141414"/>
<path d="M246.135 33.32C244.983 34.056 243.671 34.616 242.199 35C240.727 35.384 239.255 35.576 237.783 35.576C235.415 35.576 233.527 35 232.119 33.848C230.743 32.664 230.055 30.904 230.055 28.568V18.728C230.055 16.136 230.855 14.12 232.455 12.68C234.087 11.24 236.231 10.52 238.887 10.52C241.543 10.52 243.607 11.24 245.079 12.68C246.583 14.088 247.335 16.056 247.335 18.584V25.496L234.471 26.216V28.088C234.471 29.208 234.791 30.072 235.431 30.68C236.103 31.256 237.031 31.544 238.215 31.544C239.975 31.544 242.071 30.904 244.503 29.624L246.135 33.32ZM242.919 18.536C242.919 17.224 242.503 16.264 241.671 15.656C240.839 15.016 239.895 14.696 238.839 14.696C237.463 14.696 236.391 15.08 235.623 15.848C234.855 16.584 234.471 17.56 234.471 18.776V22.136L242.919 21.656V18.536Z" fill="#141414"/>
</svg>
